<?xml version="1.0" encoding="UTF-8"?>
<svg width="182px" height="162px" viewBox="0 0 182 162" version="1.1" xmlns="http://www.w3.org/2000/svg" xmlns:xlink="http://www.w3.org/1999/xlink">
    <!-- Generator: Sketch 52.4 (67378) - http://www.bohemiancoding.com/sketch -->
    <title>books</title>
    <desc>Created with Sketch.</desc>
    <g id="Page-1" stroke="none" stroke-width="1" fill="none" fill-rule="evenodd">
        <g id="books" transform="translate(0.000000, -1.000000)" fill="#B43757">
            <rect id="Rectangle" x="54" y="5" width="43" height="26" rx="6"></rect>
            <rect id="Rectangle" x="54" y="55" width="43" height="108" rx="6"></rect>
            <rect id="Rectangle" x="54" y="35" width="43" height="16"></rect>
            <rect id="Rectangle" x="54" y="15" width="43" height="16"></rect>
            <rect id="Rectangle" x="54" y="55" width="43" height="16"></rect>
            <rect id="Rectangle" x="0" y="5" width="43" height="26" rx="6"></rect>
            <rect id="Rectangle" x="0" y="55" width="43" height="108" rx="6"></rect>
            <rect id="Rectangle" x="0" y="35" width="43" height="16"></rect>
            <rect id="Rectangle" x="0" y="15" width="43" height="16"></rect>
            <rect id="Rectangle" x="0" y="55" width="43" height="16"></rect>
            <g id="Group" transform="translate(142.541422, 82.252700) rotate(-14.000000) translate(-142.541422, -82.252700) translate(121.041422, 3.252700)">
                <rect id="Rectangle" x="0" y="0" width="43" height="26" rx="6"></rect>
                <rect id="Rectangle" x="0" y="50" width="43" height="108" rx="6"></rect>
                <rect id="Rectangle" x="0" y="30" width="43" height="16"></rect>
                <rect id="Rectangle" x="0" y="10" width="43" height="16"></rect>
                <rect id="Rectangle" x="0" y="50" width="43" height="16"></rect>
            </g>
        </g>
    </g>
</svg>