<?xml version="1.0" encoding="UTF-8"?>
<svg width="1388px" height="191px" viewBox="0 0 1388 191" version="1.1" xmlns="http://www.w3.org/2000/svg" xmlns:xlink="http://www.w3.org/1999/xlink">
    <!-- Generator: Sketch 52.4 (67378) - http://www.bohemiancoding.com/sketch -->
    <title>Group 3</title>
    <desc>Created with Sketch.</desc>
    <g id="Page-1" stroke="none" stroke-width="1" fill="none" fill-rule="evenodd">
        <g id="Group-3" transform="translate(0.000000, -1.000000)" fill="#FFB6C1">
            <g id="Group-2" transform="translate(609.000000, 0.000000)">
                <rect id="Rectangle" x="54" y="5" width="43" height="26" rx="6"></rect>
                <rect id="Rectangle" x="54" y="55" width="43" height="108" rx="6"></rect>
                <rect id="Rectangle" x="54" y="35" width="43" height="16"></rect>
                <rect id="Rectangle" x="54" y="15" width="43" height="16"></rect>
                <rect id="Rectangle" x="54" y="55" width="43" height="16"></rect>
                <rect id="Rectangle" x="0" y="5" width="43" height="26" rx="6"></rect>
                <rect id="Rectangle" x="0" y="55" width="43" height="108" rx="6"></rect>
                <rect id="Rectangle" x="0" y="35" width="43" height="16"></rect>
                <rect id="Rectangle" x="0" y="15" width="43" height="16"></rect>
                <rect id="Rectangle" x="0" y="55" width="43" height="16"></rect>
                <g id="Group" transform="translate(142.541422, 82.252700) rotate(-14.000000) translate(-142.541422, -82.252700) translate(121.041422, 3.252700)">
                    <rect id="Rectangle" x="0" y="0" width="43" height="26" rx="6"></rect>
                    <rect id="Rectangle" x="0" y="50" width="43" height="108" rx="6"></rect>
                    <rect id="Rectangle" x="0" y="30" width="43" height="16"></rect>
                    <rect id="Rectangle" x="0" y="10" width="43" height="16"></rect>
                    <rect id="Rectangle" x="0" y="50" width="43" height="16"></rect>
                </g>
            </g>
            <rect id="Rectangle" x="579" y="169" width="232" height="23" rx="5"></rect>
            <rect id="Rectangle" x="792" y="169" width="596" height="23" rx="5"></rect>
            <rect id="Rectangle" x="0" y="169" width="596" height="23" rx="5"></rect>
        </g>
    </g>
</svg>